# xmcd
#
# Track frame offsets: 
#        150
#        17055
#        37632
#        56900
#        75922
#        87530
#        103202
#        117132
#        147257
#        159475
#        171885
#        191837
#        205987
#        229420
#
# Disc length: 3109 seconds
#
# Revision: 0
# Processed by: cddbd v1.4PL0 Copyright (c) Steve Scherf et al.
# Submitted via: ExactAudioCopy v0.90b4
#
DISCID=ba0c230e
DTITLE=Big Smith - Big Rock
DYEAR=2000
DGENRE=Bluegrass
TTITLE0=Big Rock
TTITLE1=Backwater
TTITLE2=No Sir
TTITLE3=Die, Dead, Die
TTITLE4=Preacher
TTITLE5=Poison
TTITLE6=Quarry Anthem
TTITLE7=John Elvis
TTITLE8=What Has Happened?
TTITLE9=12" 3 Speed Oscillating Fan
TTITLE10=She Lets Me In
TTITLE11=Don't You Ever (ask me to leave this town again)
TTITLE12=Fickle Hearted Man
TTITLE13=Sweet Rivers
EXTD=
EXTT0=
EXTT1=
EXTT2=
EXTT3=
EXTT4=
EXTT5=
EXTT6=
EXTT7=
EXTT8=
EXTT9=
EXTT10=
EXTT11=
EXTT12=
EXTT13=
PLAYORDER=
